<svg width="100" height="100" viewBox="0 0 100 100" fill="none" xmlns="http://www.w3.org/2000/svg">
<circle cx="50" cy="50" r="50" fill="#FE0000"/>
<path d="M69.3622 27.34C66.485 24.4786 64.8993 20.8039 64.9005 17H51.8941V62.4667C51.7938 64.9271 50.6014 67.2576 48.5679 68.9674C46.5344 70.6773 43.8186 71.633 40.9923 71.6333C35.0153 71.6333 30.0485 67.38 30.0485 62.1C30.0485 55.7933 37.0357 51.0633 44.2334 53.0067V41.42C29.7117 39.7333 17 49.56 17 62.1C17 74.31 28.6173 83 40.9503 83C54.1671 83 64.9005 73.65 64.9005 62.1V39.0367C70.1746 42.3361 76.5068 44.1064 83 44.0967V32.7667C83 32.7667 75.0867 33.0967 69.3622 27.34Z" fill="white"/>
</svg>
