<svg width="100" height="100" viewBox="0 0 100 100" fill="none" xmlns="http://www.w3.org/2000/svg">
<circle cx="50" cy="50" r="50" fill="white"/>
<path d="M69.47 46.62C58.91 40.35 41.255 39.69 31.19 42.825C29.54 43.32 27.89 42.33 27.395 40.845C26.9 39.195 27.89 37.545 29.375 37.05C41.09 33.585 60.395 34.245 72.605 41.505C74.09 42.33 74.585 44.31 73.76 45.795C72.935 46.95 70.955 47.445 69.47 46.62ZM69.14 55.86C68.315 57.015 66.83 57.51 65.675 56.685C56.765 51.24 43.235 49.59 32.84 52.89C31.52 53.22 30.035 52.56 29.705 51.24C29.375 49.92 30.035 48.435 31.355 48.105C43.4 44.475 58.25 46.29 68.48 52.56C69.47 53.055 69.965 54.705 69.14 55.86ZM65.18 64.935C64.52 65.925 63.365 66.255 62.375 65.595C54.62 60.81 44.885 59.82 33.335 62.46C32.18 62.79 31.19 61.965 30.86 60.975C30.53 59.82 31.355 58.83 32.345 58.5C44.885 55.695 55.775 56.85 64.355 62.13C65.51 62.625 65.675 63.945 65.18 64.935ZM50 17.25C45.6664 17.25 41.3752 18.1036 37.3714 19.762C33.3677 21.4204 29.7298 23.8511 26.6655 26.9155C20.4768 33.1042 17 41.4979 17 50.25C17 59.0021 20.4768 67.3958 26.6655 73.5845C29.7298 76.6489 33.3677 79.0796 37.3714 80.738C41.3752 82.3964 45.6664 83.25 50 83.25C58.7521 83.25 67.1458 79.7732 73.3345 73.5845C79.5232 67.3958 83 59.0021 83 50.25C83 45.9164 82.1464 41.6252 80.488 37.6214C78.8296 33.6177 76.3989 29.9798 73.3345 26.9155C70.2702 23.8511 66.6323 21.4204 62.6286 19.762C58.6248 18.1036 54.3336 17.25 50 17.25Z" fill="#8400F9"/>
</svg>
