<svg width="100" height="100" viewBox="0 0 100 100" fill="none" xmlns="http://www.w3.org/2000/svg">
<circle cx="50" cy="50" r="50" fill="#FE0000"/>
<path d="M56.6007 49.7502L45.0507 56.722V42.7783L56.6007 49.7502Z" fill="white" stroke="white" stroke-width="6" stroke-linecap="round" stroke-linejoin="round"/>
<path d="M17 52.2145V47.282C17 37.1902 17 32.1426 19.9865 28.8973C22.9763 25.6484 27.6821 25.5089 37.0904 25.2266C41.5454 25.0941 46.0994 25 50 25C53.8973 25 58.4513 25.0941 62.9096 25.2266C72.3179 25.5089 77.0237 25.6484 80.0102 28.8973C83 32.1426 83 37.1937 83 47.282V52.2145C83 62.3098 83 67.3539 80.0135 70.6027C77.0237 73.8481 72.3212 73.9911 62.9096 74.2699C58.4546 74.4059 53.9006 74.5 50 74.5C45.696 74.4863 41.3924 74.4096 37.0904 74.2699C27.6821 73.9911 22.9763 73.8516 19.9865 70.6027C17 67.3539 17 62.3063 17 52.218V52.2145Z" stroke="white" stroke-width="6"/>
</svg>
