<svg width="100" height="100" viewBox="0 0 100 100" fill="none" xmlns="http://www.w3.org/2000/svg">
<circle cx="50" cy="50" r="50" fill="#FE0000"/>
<path d="M83 28.4706C80.5707 29.6029 77.9522 30.3471 75.239 30.7029C78.0153 28.9882 80.1606 26.2706 81.1702 23.0029C78.5516 24.6206 75.6491 25.7529 72.5889 26.4C70.0966 23.6176 66.5947 22 62.6195 22C55.2055 22 49.1482 28.2118 49.1482 35.8794C49.1482 36.9794 49.2744 38.0471 49.4952 39.05C38.2639 38.4676 28.2629 32.9353 21.6061 24.5559C20.4388 26.5941 19.7763 28.9882 19.7763 31.5118C19.7763 36.3324 22.1424 40.6029 25.8021 43.0294C23.5621 43.0294 21.4799 42.3824 19.6501 41.4118V41.5088C19.6501 48.2382 24.3193 53.8676 30.5029 55.1294C28.5176 55.6866 26.4334 55.7641 24.414 55.3559C25.2708 58.1139 26.949 60.5272 29.2126 62.2565C31.4761 63.9859 34.2113 64.9443 37.0335 64.9971C32.2495 68.8808 26.3195 70.9801 20.218 70.95C19.1453 70.95 18.0727 70.8853 17 70.7559C22.9943 74.7029 30.1243 77 37.7591 77C62.6195 77 76.2801 55.8412 76.2801 37.4971C76.2801 36.8824 76.2801 36.3 76.2486 35.6853C78.8987 33.7441 81.1702 31.2853 83 28.4706Z" fill="white"/>
</svg>
