<svg width="100" height="100" viewBox="0 0 100 100" fill="none" xmlns="http://www.w3.org/2000/svg">
<circle cx="50" cy="50" r="50" fill="white"/>
<path d="M56.6008 50.0002L45.0508 56.972V43.0283L56.6008 50.0002Z" fill="#8400F9" stroke="#8400F9" stroke-width="6" stroke-linecap="round" stroke-linejoin="round"/>
<path d="M17 52.4645V47.532C17 37.4402 17 32.3926 19.9865 29.1473C22.9763 25.8984 27.6821 25.7589 37.0904 25.4766C41.5454 25.3441 46.0994 25.25 50 25.25C53.8973 25.25 58.4513 25.3441 62.9096 25.4766C72.3179 25.7589 77.0237 25.8984 80.0102 29.1473C83 32.3926 83 37.4437 83 47.532V52.4645C83 62.5598 83 67.6039 80.0135 70.8527C77.0237 74.0981 72.3212 74.2411 62.9096 74.5199C58.4546 74.6559 53.9006 74.75 50 74.75C45.696 74.7363 41.3924 74.6596 37.0904 74.5199C27.6821 74.2411 22.9763 74.1016 19.9865 70.8527C17 67.6039 17 62.5563 17 52.468V52.4645Z" stroke="#8400F9" stroke-width="6"/>
</svg>
