<svg width="100" height="100" viewBox="0 0 100 100" fill="none" xmlns="http://www.w3.org/2000/svg">
<circle cx="50" cy="50" r="50" fill="white"/>
<path d="M69.3622 27.59C66.485 24.7286 64.8993 21.0539 64.9005 17.25H51.8941V62.7167C51.7938 65.1771 50.6014 67.5076 48.5679 69.2174C46.5344 70.9273 43.8186 71.883 40.9923 71.8833C35.0153 71.8833 30.0485 67.63 30.0485 62.35C30.0485 56.0433 37.0357 51.3133 44.2334 53.2567V41.67C29.7117 39.9833 17 49.81 17 62.35C17 74.56 28.6173 83.25 40.9503 83.25C54.1671 83.25 64.9005 73.9 64.9005 62.35V39.2867C70.1746 42.5861 76.5068 44.3564 83 44.3467V33.0167C83 33.0167 75.0867 33.3467 69.3622 27.59Z" fill="#8400F9"/>
</svg>
