<svg width="100" height="100" viewBox="0 0 100 100" fill="none" xmlns="http://www.w3.org/2000/svg">
<circle cx="50" cy="50" r="50" fill="#FE0000"/>
<path d="M69.47 46.37C58.91 40.1 41.255 39.44 31.19 42.575C29.54 43.07 27.89 42.08 27.395 40.595C26.9 38.945 27.89 37.295 29.375 36.8C41.09 33.335 60.395 33.995 72.605 41.255C74.09 42.08 74.585 44.06 73.76 45.545C72.935 46.7 70.955 47.195 69.47 46.37ZM69.14 55.61C68.315 56.765 66.83 57.26 65.675 56.435C56.765 50.99 43.235 49.34 32.84 52.64C31.52 52.97 30.035 52.31 29.705 50.99C29.375 49.67 30.035 48.185 31.355 47.855C43.4 44.225 58.25 46.04 68.48 52.31C69.47 52.805 69.965 54.455 69.14 55.61ZM65.18 64.685C64.52 65.675 63.365 66.005 62.375 65.345C54.62 60.56 44.885 59.57 33.335 62.21C32.18 62.54 31.19 61.715 30.86 60.725C30.53 59.57 31.355 58.58 32.345 58.25C44.885 55.445 55.775 56.6 64.355 61.88C65.51 62.375 65.675 63.695 65.18 64.685ZM50 17C45.6664 17 41.3752 17.8536 37.3714 19.512C33.3677 21.1704 29.7298 23.6011 26.6655 26.6655C20.4768 32.8542 17 41.2479 17 50C17 58.7521 20.4768 67.1458 26.6655 73.3345C29.7298 76.3989 33.3677 78.8296 37.3714 80.488C41.3752 82.1464 45.6664 83 50 83C58.7521 83 67.1458 79.5232 73.3345 73.3345C79.5232 67.1458 83 58.7521 83 50C83 45.6664 82.1464 41.3752 80.488 37.3714C78.8296 33.3677 76.3989 29.7298 73.3345 26.6655C70.2702 23.6011 66.6323 21.1704 62.6286 19.512C58.6248 17.8536 54.3336 17 50 17Z" fill="white"/>
</svg>
