<svg width="100" height="100" viewBox="0 0 100 100" fill="none" xmlns="http://www.w3.org/2000/svg">
<circle cx="50" cy="50" r="50" fill="#FE0000"/>
<path d="M36.14 17H63.86C74.42 17 83 25.58 83 36.14V63.86C83 68.9362 80.9835 73.8046 77.394 77.394C73.8046 80.9835 68.9362 83 63.86 83H36.14C25.58 83 17 74.42 17 63.86V36.14C17 31.0638 19.0165 26.1954 22.606 22.606C26.1954 19.0165 31.0638 17 36.14 17ZM35.48 23.6C32.3292 23.6 29.3075 24.8516 27.0796 27.0796C24.8516 29.3075 23.6 32.3292 23.6 35.48V64.52C23.6 71.087 28.913 76.4 35.48 76.4H64.52C67.6708 76.4 70.6925 75.1484 72.9204 72.9204C75.1484 70.6925 76.4 67.6708 76.4 64.52V35.48C76.4 28.913 71.087 23.6 64.52 23.6H35.48ZM67.325 28.55C68.419 28.55 69.4682 28.9846 70.2418 29.7582C71.0154 30.5318 71.45 31.581 71.45 32.675C71.45 33.769 71.0154 34.8182 70.2418 35.5918C69.4682 36.3654 68.419 36.8 67.325 36.8C66.231 36.8 65.1818 36.3654 64.4082 35.5918C63.6346 34.8182 63.2 33.769 63.2 32.675C63.2 31.581 63.6346 30.5318 64.4082 29.7582C65.1818 28.9846 66.231 28.55 67.325 28.55ZM50 33.5C54.3761 33.5 58.5729 35.2384 61.6673 38.3327C64.7616 41.4271 66.5 45.6239 66.5 50C66.5 54.3761 64.7616 58.5729 61.6673 61.6673C58.5729 64.7616 54.3761 66.5 50 66.5C45.6239 66.5 41.4271 64.7616 38.3327 61.6673C35.2384 58.5729 33.5 54.3761 33.5 50C33.5 45.6239 35.2384 41.4271 38.3327 38.3327C41.4271 35.2384 45.6239 33.5 50 33.5ZM50 40.1C47.3744 40.1 44.8563 41.143 42.9996 42.9996C41.143 44.8563 40.1 47.3744 40.1 50C40.1 52.6256 41.143 55.1437 42.9996 57.0004C44.8563 58.857 47.3744 59.9 50 59.9C52.6256 59.9 55.1437 58.857 57.0004 57.0004C58.857 55.1437 59.9 52.6256 59.9 50C59.9 47.3744 58.857 44.8563 57.0004 42.9996C55.1437 41.143 52.6256 40.1 50 40.1Z" fill="white"/>
</svg>
