<svg width="100" height="100" viewBox="0 0 100 100" fill="none" xmlns="http://www.w3.org/2000/svg">
<circle cx="50" cy="50" r="50" fill="white"/>
<path d="M19.5649 28.0356L17.9267 29.3834L19.7435 30.4786L49.2256 48.2513L50 48.7181L50.7744 48.2513L80.2565 30.4786L82.0733 29.3834L80.4351 28.0356C78.8616 26.7411 76.8518 26.0333 74.6316 26.0333H25.3684C23.1482 26.0333 21.1384 26.7411 19.5649 28.0356ZM19.0585 30.7725L17.5326 29.8495L16.8846 31.511C16.5217 32.4415 16.2895 33.5094 16.2895 34.6V66.4C16.2895 68.7072 17.2734 70.8968 18.9864 72.494C20.6958 74.0878 22.9931 74.9667 25.3684 74.9667H74.6316C77.0069 74.9667 79.3042 74.0878 81.0136 72.494C82.7266 70.8968 83.7105 68.7072 83.7105 66.4V34.6C83.7105 33.5094 83.4783 32.4415 83.1154 31.511L82.4674 29.8495L80.9415 30.7725L50 49.4889L19.0585 30.7725ZM25.3684 25.5H74.6316C77.2814 25.5 79.8034 26.4825 81.6473 28.2018C83.4877 29.9177 84.5 32.2218 84.5 34.6V66.4C84.5 68.7783 83.4877 71.0823 81.6473 72.7982C79.8034 74.5175 77.2814 75.5 74.6316 75.5H25.3684C22.7186 75.5 20.1966 74.5175 18.3527 72.7982C16.5123 71.0823 15.5 68.7783 15.5 66.4V34.6C15.5 32.2218 16.5123 29.9177 18.3527 28.2018C20.1966 26.4825 22.7186 25.5 25.3684 25.5Z" fill="#8400F9" stroke="#8400F9" stroke-width="3"/>
</svg>
