<svg width="100" height="100" viewBox="0 0 100 100" fill="none" xmlns="http://www.w3.org/2000/svg">
<circle cx="50" cy="50" r="50" fill="white"/>
<path d="M83 28.7206C80.5707 29.8529 77.9522 30.5971 75.239 30.9529C78.0153 29.2382 80.1606 26.5206 81.1702 23.2529C78.5516 24.8706 75.6491 26.0029 72.5889 26.65C70.0966 23.8676 66.5947 22.25 62.6195 22.25C55.2055 22.25 49.1482 28.4618 49.1482 36.1294C49.1482 37.2294 49.2744 38.2971 49.4952 39.3C38.2639 38.7176 28.2629 33.1853 21.6061 24.8059C20.4388 26.8441 19.7763 29.2382 19.7763 31.7618C19.7763 36.5824 22.1424 40.8529 25.8021 43.2794C23.5621 43.2794 21.4799 42.6324 19.6501 41.6618V41.7588C19.6501 48.4882 24.3193 54.1176 30.5029 55.3794C28.5176 55.9366 26.4334 56.0141 24.414 55.6059C25.2708 58.3639 26.949 60.7772 29.2126 62.5065C31.4761 64.2359 34.2113 65.1943 37.0335 65.2471C32.2495 69.1308 26.3195 71.2301 20.218 71.2C19.1453 71.2 18.0727 71.1353 17 71.0059C22.9943 74.9529 30.1243 77.25 37.7591 77.25C62.6195 77.25 76.2801 56.0912 76.2801 37.7471C76.2801 37.1324 76.2801 36.55 76.2486 35.9353C78.8987 33.9941 81.1702 31.5353 83 28.7206Z" fill="#8400F9"/>
</svg>
