<svg width="100" height="100" viewBox="0 0 100 100" fill="none" xmlns="http://www.w3.org/2000/svg">
<circle cx="50" cy="50" r="50" fill="white"/>
<path d="M36.14 17.25H63.86C74.42 17.25 83 25.83 83 36.39V64.11C83 69.1862 80.9835 74.0546 77.394 77.644C73.8046 81.2335 68.9362 83.25 63.86 83.25H36.14C25.58 83.25 17 74.67 17 64.11V36.39C17 31.3138 19.0165 26.4454 22.606 22.856C26.1954 19.2665 31.0638 17.25 36.14 17.25ZM35.48 23.85C32.3292 23.85 29.3075 25.1016 27.0796 27.3296C24.8516 29.5575 23.6 32.5792 23.6 35.73V64.77C23.6 71.337 28.913 76.65 35.48 76.65H64.52C67.6708 76.65 70.6925 75.3984 72.9204 73.1704C75.1484 70.9425 76.4 67.9208 76.4 64.77V35.73C76.4 29.163 71.087 23.85 64.52 23.85H35.48ZM67.325 28.8C68.419 28.8 69.4682 29.2346 70.2418 30.0082C71.0154 30.7818 71.45 31.831 71.45 32.925C71.45 34.019 71.0154 35.0682 70.2418 35.8418C69.4682 36.6154 68.419 37.05 67.325 37.05C66.231 37.05 65.1818 36.6154 64.4082 35.8418C63.6346 35.0682 63.2 34.019 63.2 32.925C63.2 31.831 63.6346 30.7818 64.4082 30.0082C65.1818 29.2346 66.231 28.8 67.325 28.8ZM50 33.75C54.3761 33.75 58.5729 35.4884 61.6673 38.5827C64.7616 41.6771 66.5 45.8739 66.5 50.25C66.5 54.6261 64.7616 58.8229 61.6673 61.9173C58.5729 65.0116 54.3761 66.75 50 66.75C45.6239 66.75 41.4271 65.0116 38.3327 61.9173C35.2384 58.8229 33.5 54.6261 33.5 50.25C33.5 45.8739 35.2384 41.6771 38.3327 38.5827C41.4271 35.4884 45.6239 33.75 50 33.75ZM50 40.35C47.3744 40.35 44.8563 41.393 42.9996 43.2496C41.143 45.1063 40.1 47.6244 40.1 50.25C40.1 52.8756 41.143 55.3937 42.9996 57.2504C44.8563 59.107 47.3744 60.15 50 60.15C52.6256 60.15 55.1437 59.107 57.0004 57.2504C58.857 55.3937 59.9 52.8756 59.9 50.25C59.9 47.6244 58.857 45.1063 57.0004 43.2496C55.1437 41.393 52.6256 40.35 50 40.35Z" fill="#8400F9"/>
</svg>
